HIERARCHY
ROOT Model_Hips
{
	OFFSET 0.000000 96.915077 0.000000
	CHANNELS 6 Xposition Yposition Zposition Xrotation Yrotation Zrotation
	JOINT Model_Spine
	{
		OFFSET 0.000000 11.137703 -1.289900
		CHANNELS 3 Xrotation Yrotation Zrotation
		JOINT Model_Spine1
		{
			OFFSET 0.000000 12.993942 -1.504922
			CHANNELS 3 Xrotation Yrotation Zrotation
			JOINT Model_Spine2
			{
				OFFSET 0.000000 14.850220 -1.719911
				CHANNELS 3 Xrotation Yrotation Zrotation
				JOINT Model_Neck
				{
					OFFSET 0.000000 16.706543 -1.934903
					CHANNELS 3 Xrotation Yrotation Zrotation
					JOINT Model_Head
					{
						OFFSET 0.000000 10.471298 2.002100
						CHANNELS 3 Xrotation Yrotation Zrotation
						JOINT Model_HeadTop_End
						{
							OFFSET 0.000000 20.842606 3.985100
							CHANNELS 3 Xrotation Yrotation Zrotation
							End Site
							{
								OFFSET 0.000000 21.220154 0.000000
							}
						}
					}
				}
				JOINT Model_LeftShoulder
				{
					OFFSET 7.008500 14.768600 -1.919946
					CHANNELS 3 Xrotation Yrotation Zrotation
					JOINT Model_LeftArm
					{
						OFFSET 14.126271 -3.718048 0.029937
						CHANNELS 3 Xrotation Yrotation Zrotation
						JOINT Model_LeftForeArm
						{
							OFFSET 28.282801 0.000000 0.000000
							CHANNELS 3 Xrotation Yrotation Zrotation
							JOINT Model_LeftHand
							{
								OFFSET 26.204689 0.000000 0.000000
								CHANNELS 3 Xrotation Yrotation Zrotation
								End Site
								{
									OFFSET 26.204704 0.000000 0.000000
								}
							}
						}
					}
				}
				JOINT Model_RightShoulder
				{
					OFFSET -7.008500 14.768555 -1.949840
					CHANNELS 3 Xrotation Yrotation Zrotation
					JOINT Model_RightArm
					{
						OFFSET -14.126281 -3.718018 -0.029932
						CHANNELS 3 Xrotation Yrotation Zrotation
						JOINT Model_RightForeArm
						{
							OFFSET -28.283798 0.000000 -0.000001
							CHANNELS 3 Xrotation Yrotation Zrotation
							JOINT Model_RightHand
							{
								OFFSET -26.204193 0.000000 -0.000001
								CHANNELS 3 Xrotation Yrotation Zrotation
								End Site
								{
									OFFSET -26.204208 0.000000 -0.000001
								}
							}
						}
					}
				}
			}
		}
	}
	JOINT Model_LeftUpLeg
	{
		OFFSET 8.327700 -6.193199 -0.402800
		CHANNELS 3 Xrotation Yrotation Zrotation
		JOINT Model_LeftLeg
		{
			OFFSET 0.735802 -42.108742 -0.610721
			CHANNELS 3 Xrotation Yrotation Zrotation
			JOINT Model_LeftFoot
			{
				OFFSET -0.735806 -36.833748 -0.172876
				CHANNELS 3 Xrotation Yrotation Zrotation
				JOINT Model_LeftToeBase
				{
					OFFSET -0.565857 -11.977769 16.297714
					CHANNELS 3 Xrotation Yrotation Zrotation
					JOINT Model_LeftToe_End
					{
						OFFSET -0.111712 -0.312793 7.857784
						CHANNELS 3 Xrotation Yrotation Zrotation
						End Site
						{
							OFFSET -0.111712 -0.312793 7.857784
						}
					}
				}
			}
		}
	}
	JOINT Model_RightUpLeg
	{
		OFFSET -8.327700 -6.193199 -0.516500
		CHANNELS 3 Xrotation Yrotation Zrotation
		JOINT Model_RightLeg
		{
			OFFSET -0.735785 -42.108738 -0.434061
			CHANNELS 3 Xrotation Yrotation Zrotation
			JOINT Model_RightFoot
			{
				OFFSET 0.735776 -36.833748 -0.021630
				CHANNELS 3 Xrotation Yrotation Zrotation
				JOINT Model_RightToeBase
				{
					OFFSET 0.565817 -11.977745 15.903093
					CHANNELS 3 Xrotation Yrotation Zrotation
					JOINT Model_RightToe_End
					{
						OFFSET 0.111702 -0.312791 7.811342
						CHANNELS 3 Xrotation Yrotation Zrotation
						End Site
						{
							OFFSET 0.111702 -0.312791 7.811342
						}
					}
				}
			}
		}
	}
}
MOTION
Frames: 14
Frame Time: 0.016667
0.022955 85.091759 -0.382788 -0.102409 -177.833879 0.643114 15.705457 2.100401 0.300418 2.587594 0.521689 0.458031 2.590846 0.496345 0.450428 0.862649 -0.755224 0.884768 -6.950981 -0.855768 0.786075 0.000002 -0.000000 -0.000000 0.538670 -4.328705 -16.180056 29.263853 12.932564 -72.985721 0.000002 -55.431619 0.000013 0.000001 0.000000 -0.000000 0.411561 5.768847 18.389642 5.191520 -0.885455 54.986428 0.000015 40.557615 -0.000004 -0.000001 -0.000000 -0.000000 -44.999697 -2.000863 4.178156 88.192031 10.031810 2.729390 -9.188242 2.492885 -5.149666 -6.576907 1.739256 -9.330116 -0.000001 -0.000001 0.000001 -35.910126 -2.524209 -7.465011 71.534689 6.259302 -0.978929 -27.241738 -0.266980 0.346953 -11.645274 -0.000000 -0.000001 0.000000 -0.000000 0.000000 
0.330360 84.698929 3.659071 0.484892 -178.378791 0.149625 15.561625 1.488574 0.573561 2.552600 0.340737 0.565948 2.554717 0.312688 0.564727 0.890106 -0.574904 0.611246 -6.922550 -0.645206 0.536226 0.000000 -0.000000 0.000000 0.541842 -4.315634 -15.862257 25.707627 11.944716 -71.210753 -0.000022 -59.113423 -0.000039 -0.000000 -0.000000 0.000000 0.383155 6.038280 18.731425 9.525562 -4.121823 56.809511 -0.000001 39.454437 0.000015 -0.000000 0.000000 -0.000000 -40.499521 -1.484609 6.537241 92.497099 9.953382 2.401613 -10.686492 1.258670 -5.807713 -6.822273 1.766605 -9.388739 0.000001 -0.000002 0.000000 -38.248766 -2.194909 -6.519565 70.744477 6.260790 -0.814756 -24.967225 -0.247375 0.393441 -11.077096 -0.000001 0.000000 -0.000000 -0.000000 0.000000 
0.628872 84.788773 7.561970 1.156772 -177.746343 -0.269192 15.196881 0.088829 0.964507 2.514676 -0.053643 0.654134 2.513527 -0.080604 0.664210 1.033811 -0.412977 0.168267 -6.776695 -0.436601 0.114881 0.000000 -0.000000 -0.000000 0.536937 -4.469938 -15.471437 23.244317 10.987992 -68.717099 0.000004 -65.328642 0.000003 -0.000000 -0.000001 0.000000 0.417136 5.568876 18.910977 15.143947 -7.622680 58.892719 0.000016 41.733907 -0.000036 -0.000002 -0.000000 -0.000001 -35.195575 -1.403300 7.999302 94.475498 8.779815 2.519919 -10.784847 1.018693 -6.798100 -5.074355 1.251770 -7.924111 -0.000000 -0.000000 -0.000000 -39.643446 -2.261116 -6.174638 68.502952 6.224806 -0.514291 -21.386388 -0.407978 1.120025 -9.637411 0.000000 0.000002 0.000001 -0.000000 0.000000 
0.875288 85.249542 11.465331 2.097497 -175.991722 -0.502614 14.977630 -2.109512 1.371528 2.467154 -0.662814 0.676878 2.461963 -0.684238 0.702638 1.265551 -0.262404 -0.377896 -6.541532 -0.229917 -0.411596 -0.000000 0.000000 -0.000000 0.519162 -4.916874 -15.069137 21.621602 10.602333 -65.577719 -0.000067 -73.707611 -0.000063 -0.000000 0.000000 0.000001 0.513689 4.402473 18.643254 21.362100 -10.564955 61.334969 -0.000007 46.186460 0.000038 -0.000000 -0.000000 -0.000000 -29.537320 -1.903766 8.643103 94.610961 7.385387 2.947628 -9.606689 1.176445 -7.989413 -1.157679 0.452133 -4.803734 0.000000 0.000000 -0.000000 -39.948199 -2.925193 -6.656108 65.049759 5.965870 0.042807 -17.421318 -0.414891 1.304338 -7.428165 0.000002 0.000002 -0.000000 -0.000000 0.000000 
1.033327 85.980049 15.540112 3.153044 -173.593110 -0.602323 14.999790 -4.740141 1.770990 2.405939 -1.387612 0.618315 2.399501 -1.399852 0.660795 1.519483 -0.133190 -0.988972 -6.282591 -0.039283 -1.006857 0.000001 0.000000 0.000000 0.488330 -5.738617 -14.630846 20.065272 10.962003 -61.958053 -0.000022 -83.178460 0.000024 0.000001 -0.000001 -0.000000 0.622270 2.965410 17.784004 27.377948 -12.818181 64.163535 0.000011 51.559213 0.000021 0.000000 -0.000000 0.000001 -24.221531 -2.827166 8.878659 93.446632 6.017450 3.559053 -7.748194 1.241921 -9.080598 3.898587 0.014773 -0.877357 -0.000001 -0.000002 0.000001 -39.596861 -3.979593 -7.835666 60.368115 5.678934 0.824753 -12.358469 -0.396880 1.541348 -7.008397 0.000001 0.000002 0.000000 0.000000 0.000000 
1.096388 86.905411 19.895744 3.940317 -171.253429 -0.686189 15.089691 -7.234506 2.111343 2.341094 -2.070881 0.503779 2.338226 -2.072574 0.559932 1.722657 -0.044030 -1.633869 -6.072975 0.113746 -1.641519 -0.000001 0.000000 -0.000000 0.453766 -6.812475 -14.164248 17.798831 11.785837 -57.931506 0.000283 -92.592865 0.000203 0.000000 0.000001 0.000001 0.683779 1.821202 16.490804 32.584234 -14.739576 67.334395 0.000019 56.814849 -0.000018 -0.000001 -0.000000 0.000001 -19.890655 -3.782969 8.980949 91.428400 4.388420 4.250834 -6.093037 1.238372 -9.784472 5.502055 0.000002 0.000001 -0.000000 -0.000002 0.000000 -38.923175 -5.065810 -9.104613 54.068857 5.325688 1.637823 -5.946426 -0.365021 1.914410 -6.928559 0.000001 0.000001 -0.000000 0.000000 0.000000 
1.083160 87.987106 24.542492 4.141626 -169.605495 -0.822904 15.017812 -9.089768 2.241779 2.288225 -2.571503 0.381687 2.291772 -2.564558 0.446465 1.822346 -0.004806 -2.270726 -5.966260 0.215947 -2.273155 -0.000001 -0.000000 0.000000 0.427921 -7.804118 -13.753144 14.338515 12.423571 -53.393102 0.000134 -101.016947 0.000098 0.000000 -0.000001 0.000001 0.690138 1.262608 15.158391 36.654135 -16.459923 70.506438 0.000000 61.154939 0.000015 -0.000002 -0.000001 0.000000 -16.808882 -4.393999 8.950755 88.723987 2.356466 4.905459 -5.197439 1.241831 -10.122421 5.523585 -0.000005 0.000007 -0.000001 -0.000001 0.000000 -37.921350 -5.791939 -9.824604 45.382553 4.778165 2.168808 2.291958 -0.301816 2.597099 -7.294250 0.000001 0.000001 0.000001 0.000000 0.000000 
1.017039 89.137650 29.397572 3.697599 -168.989358 -1.003252 14.636867 -10.022304 2.024091 2.258817 -2.810329 0.286763 2.267918 -2.798996 0.355260 1.818105 -0.011896 -2.846583 -5.964030 0.266234 -2.847064 -0.000000 0.000000 0.000000 0.416466 -8.369179 -13.486168 9.711648 12.133843 -48.293894 0.000008 -107.891335 0.000001 0.000001 -0.000001 -0.000001 0.673319 1.173345 14.169462 39.571763 -17.760191 73.078352 -0.000014 64.339275 0.000028 -0.000001 -0.000001 0.000000 -14.842416 -4.471111 8.736525 85.369906 -0.043557 5.404227 -5.075040 1.295213 -10.277170 4.763737 0.000003 -0.000004 0.000001 0.000000 0.000001 -36.335572 -5.943072 -9.924467 33.564687 3.924449 2.239757 12.986263 0.103675 5.101238 -6.940427 -0.000003 0.000003 0.000000 0.000000 0.000000 
0.959938 89.606735 34.026527 2.776575 -169.369389 -1.188608 13.019871 -10.006246 1.250982 2.700098 -2.776534 0.261575 2.711461 -2.766488 0.307340 1.764416 -0.054441 -3.317098 -6.012824 0.271011 -3.317910 0.000001 0.000000 0.000000 0.414049 -8.397477 -13.469723 4.174512 10.942927 -42.563423 0.000048 -113.964807 0.000022 -0.000001 -0.000001 -0.000002 0.658804 1.278474 13.690552 42.623235 -18.907366 74.879541 -0.000028 68.377276 0.000043 -0.000000 -0.000001 0.000001 -13.609826 -4.145476 8.536005 82.407919 -2.608672 5.670810 -6.372617 1.493495 -10.484131 4.003227 0.000001 0.000002 0.000001 -0.000000 -0.000000 -35.532895 -5.525482 -10.051944 22.086233 2.214027 1.715569 23.936932 1.953828 11.623882 -3.221723 0.205646 -3.561123 -0.000000 -0.000000 0.000000 
0.892963 89.519012 38.397266 1.588210 -170.419954 -1.397938 10.441892 -9.143214 0.228593 3.526828 -2.520506 0.286260 3.536385 -2.516517 0.292327 1.729184 -0.119813 -3.648298 -6.045506 0.239601 -3.651701 0.000001 0.000000 -0.000001 0.409128 -8.083762 -13.825481 -2.043880 8.512918 -36.731163 0.000049 -118.143421 0.000030 -0.000001 -0.000000 0.000000 0.652818 1.411817 13.688591 45.208677 -19.563791 75.659652 -0.000017 72.359516 0.000040 0.000000 0.000000 -0.000000 -12.907082 -3.537670 8.407059 79.626714 -4.724462 5.730068 -8.154036 1.758629 -10.704800 4.202739 -0.000003 0.000002 -0.000002 0.000000 0.000001 -37.955511 -4.804072 -9.843473 18.650064 1.435607 1.431203 25.229054 2.561243 13.825860 6.519096 0.000003 0.000005 0.000001 0.000000 0.000000 
0.725263 89.814026 43.162453 0.269366 -171.697965 -1.707932 8.812520 -7.741630 -0.404369 3.881848 -2.130571 0.319663 3.888099 -2.133479 0.312899 1.737167 -0.197165 -3.783556 -6.037486 0.177077 -3.792292 0.000001 -0.000000 -0.000000 0.393800 -7.768886 -14.544125 -7.373324 4.803243 -32.384382 0.000005 -118.814310 -0.000012 -0.000002 0.000000 -0.000000 0.654457 1.519503 14.078952 45.165927 -19.037913 74.880067 0.000045 73.457592 -0.000021 -0.000002 0.000001 0.000001 -13.010948 -2.790390 8.132891 75.810701 -5.766636 5.727031 -8.136821 1.854571 -10.962202 -7.192114 -0.175887 0.798370 -0.000001 -0.000001 0.000001 -40.086302 -4.373268 -9.468736 15.988708 1.048439 1.546651 23.268175 2.533749 14.751655 6.323497 0.000001 0.000004 -0.000001 -0.000000 -0.000000 
0.488269 90.148315 48.296734 -1.052704 -172.849302 -2.133120 8.096116 -6.229798 -0.666045 3.851320 -1.711514 0.359640 3.854606 -1.720123 0.356393 1.728481 -0.279499 -3.663337 -6.044250 0.078305 -3.667594 0.000001 0.000000 0.000001 0.366096 -7.685986 -15.412001 -11.120744 1.295266 -30.092307 0.000043 -117.095834 0.000024 -0.000003 0.000003 0.000000 0.663753 1.557145 14.801081 42.372130 -17.519473 72.486264 -0.000037 72.643809 0.000058 -0.000000 -0.000001 0.000000 -13.905037 -2.278413 7.645774 71.684994 -5.766210 5.860476 -6.708577 1.811293 -11.314610 -24.664392 -1.236819 2.151094 -0.000000 -0.000000 -0.000000 -41.926741 -3.935160 -8.859897 14.929134 0.536596 1.633187 19.633987 2.029147 14.351134 5.344798 0.000001 0.000003 0.000000 0.000000 0.000001 
0.202671 90.266022 53.677021 -2.183329 -173.738948 -2.608703 8.160750 -4.937073 -0.683369 3.584679 -1.353157 0.382053 3.586061 -1.364946 0.387637 1.624593 -0.356223 -3.295890 -6.140347 -0.049557 -3.277581 0.000000 -0.000000 -0.000000 0.330424 -7.833138 -16.162903 -13.255358 -1.083219 -29.659516 0.000040 -113.943531 -0.000003 -0.000003 -0.000001 0.000000 0.679973 1.519155 15.737422 37.055692 -14.920014 68.677525 -0.000021 70.715271 0.000011 -0.000001 -0.000001 -0.000000 -15.250709 -2.196892 6.853064 67.682441 -4.988239 6.229349 -5.067413 1.734156 -11.593613 -39.680558 -1.940215 2.210925 0.000000 0.000000 -0.000000 -43.354025 -3.252014 -7.982924 15.701271 -1.141809 1.219437 16.627054 1.530056 13.339809 4.121142 -0.000002 0.000001 0.000000 0.000000 -0.000001 
-0.152242 90.203529 59.263138 -2.926477 -174.415383 -3.045890 9.160698 -4.030924 -0.533096 3.071530 -1.103805 0.366639 3.071953 -1.115889 0.383838 1.425790 -0.402970 -2.739486 -6.326575 -0.172784 -2.685416 0.000000 -0.000000 -0.000000 0.298561 -8.048135 -16.644529 -13.662135 -2.357931 -30.531997 0.000025 -109.573562 0.000007 -0.000003 -0.000001 -0.000000 0.696154 1.492498 16.670333 29.869971 -10.941143 64.135927 0.000016 67.706811 -0.000007 -0.000000 -0.000002 0.000002 -16.709653 -2.294953 5.480754 65.418063 -2.889580 6.877040 -8.674712 2.080056 -9.470249 -42.885860 -0.221316 0.427757 0.000000 -0.000000 -0.000000 -44.089015 -2.524826 -7.088317 17.733131 -4.409226 0.588316 15.825284 1.289726 12.401625 2.750885 0.000001 -0.000000 0.000000 -0.000000 0.000000 
